#!OML:ASF F:\VICON\USERDATA\INSTALL\Justin_Nancy\Justin_Nancy.ASF
:FULLY-SPECIFIED
:DEGREES
113
root -4.33811 16.6114 3.98186 -26.0886 67.3032 -36.8861
lowerback 8.9907 3.86612 3.56932
upperback 0.371583 5.7318 3.23587
thorax -4.63123 2.81797 0.634998
lowerneck -18.772 -4.05803 -4.66986
upperneck 16.9234 -5.32232 5.2549
head 8.6438 -2.23829 1.85836
rclavicle -7.59357e-014 -1.90833e-014
rhumerus -46.9859 23.2848 -101.575
rradius 115.676
rwrist -9.63806
rhand -10.8664 25.9845
rfingers 7.12502
rthumb 15.1492 -3.44103
lclavicle -7.59357e-014 -1.90833e-014
lhumerus -60.0396 -9.03255 82.124
lradius 110.258
lwrist 17.3346
lhand -12.8022 8.579
lfingers 7.12502
lthumb 13.2839 38.1357
rfemur 9.99384 6.50125 26.1467
rtibia 39.0479
rfoot 11.4609 4.27291
rtoes -0.157222
lfemur -37.6593 11.1053 -28.9963
ltibia 57.7713
lfoot -7.48091 -11.121
ltoes 10.1231
114
root -4.11921 16.5947 4.14456 -26.7537 68.482 -37.8001
lowerback 8.89737 3.67901 3.23017
upperback 0.428623 5.42637 3.05153
thorax -4.53421 2.67247 0.677667
lowerneck -19.2067 -4.16392 -5.644
upperneck 16.7052 -5.23241 5.55545
head 8.67691 -2.2255 2.12524
rclavicle -2.127e-014 1.19271e-015
rhumerus -47.785 22.5975 -101.732
rradius 115.104
rwrist -8.77168
rhand -9.82792 26.4167
rfingers 7.12502
rthumb 16.1493 -2.93049
lclavicle -2.127e-014 1.19271e-015
lhumerus -58.9475 -8.43559 83.2258
lradius 110.421
lwrist 17.1911
lhand -12.7722 7.98782
lfingers 7.12502
lthumb 13.3128 37.5426
rfemur 8.59943 6.24755 25.9718
rtibia 42.1618
rfoot 9.73396 3.96312
rtoes -5.16347
lfemur -36.4182 11.6693 -29.7915
ltibia 57.2589
lfoot -7.55645 -10.1321
ltoes 15.8277
115
root -3.8996 16.5686 4.3144 -26.9658 69.9393 -38.0312
lowerback 8.94613 3.30436 2.35497
upperback 0.559413 4.82555 2.92306
thorax -4.48806 2.3915 1.10418
lowerneck -19.5706 -4.12991 -6.27757
upperneck 16.5246 -4.9986 5.64344
head 8.68412 -2.1448 2.28536
rclavicle -4.88016e-014 1.27222e-014
rhumerus -48.911 22.7736 -101.872
rradius 114.725
rwrist -8.52397
rhand -9.76863 26.7649
rfingers 7.12502
rthumb 16.2064 -2.57762
lclavicle -4.88016e-014 1.27222e-014
lhumerus -57.9196 -7.53905 84.2028
lradius 110.754
lwrist 17.1063
lhand -11.4614 7.6255
lfingers 7.12502
lthumb 14.576 37.0933
rfemur 7.28383 5.47487 25.2065
rtibia 45.3607
rfoot 8.21068 4.1476
rtoes -13.0026
lfemur -34.7625 12.3554 -30.8595
ltibia 56.7523
lfoot -8.77705 -9.22104
ltoes 16.1527
116
root -3.68606 16.5352 4.48453 -28.0325 71.2591 -38.8997
lowerback 9.43274 3.01191 1.62743
upperback 0.642114 4.37286 2.86843
thorax -4.72022 2.17887 1.4847
lowerneck -19.4462 -3.96367 -6.38282
upperneck 16.0582 -4.68842 5.4357
head 8.48073 -2.03344 2.2727
rclavicle 9.34288e-015 -1.51076e-014
rhumerus -50.2013 22.7642 -102.268
rradius 114.299
rwrist -8.82512
rhand -10.2666 26.4694
rfingers 7.12502
rthumb 15.7269 -2.91159
lclavicle 9.34288e-015 -1.51076e-014
lhumerus -56.9365 -7.1862 84.6669
lradius 111.343
lwrist 17.3671
lhand -10.1 7.3256
lfingers 7.12502
lthumb 15.8874 36.6939
rfemur 6.11532 4.70427 24.6371
rtibia 48.5995
rfoot 6.98793 3.82034
rtoes -10.9925
lfemur -32.8578 12.8745 -31.4638
ltibia 56.2376
lfoot -10.8589 -8.15338
ltoes 15.2306
117
root -3.47323 16.5039 4.64413 -29.9146 72.0061 -41.043
lowerback 9.723 2.94512 1.51399
upperback 0.522765 4.28564 2.86803
thorax -5.01437 2.13552 1.54051
lowerneck -19.3926 -3.82262 -6.3087
upperneck 15.7881 -4.4555 5.16471
head 8.35646 -1.95002 2.19891
rclavicle 4.49253e-014 7.95139e-016
rhumerus -51.2489 21.9265 -102.316
rradius 113.669
rwrist -9.12996
rhand -10.2616 26.4313
rfingers 7.12502
rthumb 15.7317 -2.94926
lclavicle 4.49253e-014 7.95139e-016
lhumerus -55.7806 -7.22577 85.1822
lradius 111.909
lwrist 17.7413
lhand -12.1305 7.84047
lfingers 7.12502
lthumb 13.9313 37.3538
rfemur 4.44615 4.76509 24.9518
rtibia 51.6959
rfoot 6.21785 2.441
rtoes -9.31023
lfemur -31.4827 13.3559 -31.2993
ltibia 55.571
lfoot -12.8093 -7.25292
ltoes 14.9054
118
root -3.27019 16.4778 4.80247 -32.0547 71.9859 -44.0832
lowerback 9.55758 2.97707 1.91743
upperback 0.263926 4.38611 3.00231
thorax -5.17623 2.1769 1.44311
lowerneck -19.53 -3.75991 -6.2451
upperneck 15.7708 -4.35273 5.03361
head 8.36333 -1.90971 2.15629
rclavicle -2.8625e-014 -5.56597e-015
rhumerus -52.0203 21.0188 -101.981
rradius 112.878
rwrist -9.51166
rhand -9.79108 26.4627
rfingers 7.12502
rthumb 16.1848 -2.88158
lclavicle -2.8625e-014 -5.56597e-015
lhumerus -54.3583 -7.00222 85.8486
lradius 112.482
lwrist 18.0635
lhand -14.3768 8.4379
lfingers 7.12502
lthumb 11.7658 38.0874
rfemur 1.80882 5.16073 25.915
rtibia 54.8567
rfoot 5.64294 1.08766
rtoes -10.6299
lfemur -30.9432 13.8452 -30.382
ltibia 54.9631
lfoot -14.3506 -6.57408
ltoes 15.3222
119
root -3.01666 16.4359 4.98706 -38.3038 75.0362 -50.0981
lowerback 9.77021 1.91811 1.35864
upperback 0.461974 2.9082 2.89695
thorax -5.08413 1.45967 1.84804
lowerneck -19.5943 -3.53735 -5.76134
upperneck 15.4966 -4.07905 4.5563
head 8.24365 -1.80124 1.95052
rclavicle -1.90833e-014 -7.95139e-016
rhumerus -52.7483 20.3676 -101.77
rradius 111.886
rwrist -9.93722
rhand -9.45648 26.1141
rfingers 7.12502
rthumb 16.507 -3.20373
lclavicle -1.90833e-014 -7.95139e-016
lhumerus -52.6823 -6.39695 86.212
lradius 113.065
lwrist 18.5134
lhand -14.5317 8.60185
lfingers 7.12502
lthumb 11.6163 38.2599
rfemur 0.813857 1.34682 24.7507
rtibia 57.9474
rfoot 4.27267 0.927807
rtoes -13.4688
lfemur -28.2403 11.7124 -30.4715
ltibia 53.9047
lfoot -15.9545 -6.09805
ltoes 14.9726
120
root -2.80216 16.4005 5.14137 -41.1885 76.009 -53.271
lowerback 9.98148 1.651 0.968793
upperback 0.436778 2.51296 2.86515
thorax -5.23397 1.27249 2.08413
lowerneck -19.632 -3.36582 -5.30716
upperneck 15.1055 -3.9008 4.2471
head 8.09238 -1.72273 1.79438
rclavicle 0 -9.54166e-015
rhumerus -53.4272 19.6417 -101.58
rradius 110.656
rwrist -10.5997
rhand -9.44139 25.9706
rfingers 7.12502
rthumb 16.5215 -3.34606
lclavicle 0 -9.54166e-015
lhumerus -50.8381 -5.76199 86.5179
lradius 113.548
lwrist 18.272
lhand -13.5795 8.4846
lfingers 7.12502
lthumb 12.5345 38.0886
rfemur -1.43828 -0.193506 23.9725
rtibia 61.2233
rfoot 3.48894 0.618402
rtoes -13.9508
lfemur -26.7403 11.06 -30.1573
ltibia 52.9961
lfoot -17.5881 -5.48561
ltoes 13.6605
121
root -2.5992 16.3594 5.25298 -37.3323 78.8331 -49.8094
lowerback 10.1085 1.41323 -1.30476
upperback 0.304792 1.87673 2.10313
thorax -5.46906 0.998747 2.65867
lowerneck -19.9313 -3.58165 -5.83827
upperneck 15.1569 -4.19955 5.10668
head 8.2086 -1.80195 2.12915
rclavicle 3.77691e-015 1.74931e-014
rhumerus -54.028 18.7716 -101.111
rradius 109.5
rwrist -11.4811
rhand -8.68831 25.7362
rfingers 7.12502
rthumb 17.2464 -3.51853
lclavicle 3.77691e-015 1.74931e-014
lhumerus -48.8501 -5.36288 87.0199
lradius 114.087
lwrist 18.4411
lhand -12.9307 8.53589
lfingers 7.12502
lthumb 13.16 38.1006
rfemur -4.19859 -2.18136 20.2786
rtibia 64.7278
rfoot 2.55535 0.915356
rtoes -13.549
lfemur -25.2947 9.55216 -32.4963
ltibia 51.7159
lfoot -18.964 -5.06459
ltoes 13.0057
122
root -2.37582 16.3252 5.4456 -46.0433 79.7088 -58.5064
lowerback 10.5083 1.04946 -1.51597
upperback 0.433522 1.38765 2.38508
thorax -5.54218 0.769347 3.1441
lowerneck -20.1975 -3.80219 -6.3693
upperneck 15.1872 -4.49356 5.91191
head 8.31542 -1.88364 2.44748
rclavicle 1.72943e-014 3.33958e-014
rhumerus -54.6752 17.8651 -100.472
rradius 108.465
rwrist -12.0455
rhand -8.31208 25.3008
rfingers 7.12502
rthumb 17.6085 -3.92185
lclavicle 1.72943e-014 3.33958e-014
lhumerus -46.6845 -4.97863 87.5726
lradius 114.601
lwrist 19.388
lhand -14.1515 8.70966
lfingers 7.12502
lthumb 11.983 38.3467
rfemur -6.19542 -3.74065 20.6286
rtibia 67.9642
rfoot 1.43932 -0.484287
rtoes -14.1426
lfemur -23.4366 7.93756 -31.0263
ltibia 50.7746
lfoot -20.3648 -5.54165
ltoes 14.2796
123
root -2.16759 16.2929 5.59624 -52.9363 80.2974 -65.5974
lowerback 10.8527 0.750723 -1.43844
upperback 0.523237 1.00704 2.47404
thorax -5.61539 0.582792 3.25074
lowerneck -20.3045 -3.79754 -6.17491
upperneck 14.8344 -4.52277 5.90648
head 8.21201 -1.88655 2.40727
rclavicle 5.56597e-015 -2.54444e-014
rhumerus -55.2647 16.9423 -99.704
rradius 107.682
rwrist -12.687
rhand -7.72407 24.9303
rfingers 7.12502
rthumb 18.1743 -4.24061
lclavicle 5.56597e-015 -2.54444e-014
lhumerus -44.3073 -4.45647 88.0756
lradius 115.045
lwrist 19.923
lhand -15.3298 8.98538
lfingers 7.12502
lthumb 10.8467 38.6853
rfemur -8.81411 -5.08088 20.4525
rtibia 71.3422
rfoot 0.181039 -2.06678
rtoes -14.8102
lfemur -21.82 6.67968 -29.9695
ltibia 49.4504
lfoot -21.4509 -6.23735
ltoes 15.7941
